<?xml version="1.0" standalone="no"?>
<!DOCTYPE svg PUBLIC "-//W3C//DTD SVG 20010904//EN"
 "http://www.w3.org/TR/2001/REC-SVG-20010904/DTD/svg10.dtd">
<svg version="1.0" xmlns="http://www.w3.org/2000/svg"
 width="526.000000pt" height="526.000000pt" viewBox="0 0 526.000000 526.000000"
 preserveAspectRatio="xMidYMid meet">
<metadata>
Created by potrace 1.11, written by Peter Selinger 2001-2013
</metadata>
<g transform="translate(0.000000,526.000000) scale(0.100000,-0.100000)"
fill="#000000" stroke="none">
<path d="M2814 4401 c-126 -20 -238 -74 -475 -229 -85 -55 -170 -107 -189
-116 -19 -9 -116 -27 -215 -41 -284 -39 -364 -66 -414 -139 -43 -62 -60 -126
-69 -267 -10 -149 -20 -169 -111 -218 -119 -63 -147 -134 -196 -512 -13 -103
-29 -216 -35 -251 -15 -95 -12 -304 6 -398 40 -215 139 -397 258 -476 77 -51
163 -77 416 -128 124 -25 248 -52 275 -60 75 -23 139 -65 255 -166 122 -106
267 -206 360 -247 61 -26 73 -28 195 -27 305 3 528 119 629 326 37 76 66 172
66 220 0 17 18 49 50 90 27 35 68 90 91 123 l41 60 -7 75 c-14 155 -11 162 91
215 144 75 215 238 201 459 -3 50 -24 210 -46 356 -23 146 -44 319 -47 385 -3
66 -10 140 -16 165 -18 68 -97 141 -247 225 -211 118 -235 140 -414 373 -84
111 -131 151 -211 181 -62 23 -171 33 -242 22z m123 -172 c27 -13 77 -58 131
-116 119 -130 258 -253 437 -387 153 -115 228 -186 246 -233 5 -14 25 -117 45
-227 19 -111 45 -250 59 -311 81 -369 49 -583 -98 -654 -50 -24 -163 -30 -154
-8 3 6 21 49 40 93 118 274 154 690 68 786 -24 27 -30 29 -50 19 -43 -23 -51
-65 -48 -253 l2 -173 -43 -125 c-56 -165 -159 -371 -217 -437 -133 -151 -425
-231 -702 -192 -184 25 -531 130 -751 226 -213 94 -254 201 -232 602 12 219
30 362 61 470 25 91 35 110 98 189 56 69 64 107 31 137 -14 12 -27 15 -47 10
-33 -8 -125 -99 -175 -173 l-35 -53 -27 80 c-30 93 -33 139 -10 188 37 77 112
108 309 128 77 8 159 21 181 28 89 32 352 179 514 287 109 73 101 69 179 96
82 29 132 30 188 3z m-1410 -935 c21 -6 21 -8 8 -52 -26 -88 -45 -212 -57
-372 -24 -324 30 -518 189 -691 97 -104 236 -183 488 -277 217 -81 429 -111
652 -92 318 28 529 127 694 327 l34 42 53 -60 c75 -86 73 -112 -14 -210 -83
-94 -113 -152 -129 -255 -8 -45 -23 -100 -34 -122 -25 -49 -121 -138 -192
-177 -53 -29 -57 -30 -199 -30 -133 0 -152 3 -225 28 -93 33 -153 70 -290 182
-133 108 -179 139 -288 190 -102 48 -164 66 -330 96 -218 39 -356 95 -426 175
-49 56 -126 212 -146 294 -23 99 -30 270 -14 375 8 52 14 176 14 296 l0 205
30 50 c43 70 108 98 182 78z"/>
<path d="M2335 3833 c-120 -43 -245 -145 -245 -200 0 -33 26 -63 56 -63 11 0
34 15 50 33 16 18 62 53 103 77 65 39 84 45 143 48 81 5 136 -12 293 -91 244
-121 437 -283 538 -449 47 -78 59 -123 59 -218 0 -106 -23 -182 -103 -345 -75
-154 -88 -197 -69 -220 15 -18 69 -19 91 -2 8 7 48 57 87 112 111 153 117 180
117 495 0 319 -6 344 -99 435 -72 70 -149 117 -411 249 -224 113 -327 147
-465 153 -73 3 -106 -1 -145 -14z"/>
<path d="M2345 3552 c-27 -6 -45 -21 -45 -38 0 -34 82 -102 192 -159 119 -62
216 -141 238 -195 10 -25 9 -34 -9 -63 -12 -19 -28 -41 -37 -48 -8 -7 -25 -31
-36 -53 -28 -55 -20 -111 22 -148 42 -39 84 -37 119 3 56 68 91 97 184 152 54
32 104 69 113 82 33 51 13 129 -46 178 -32 27 -38 29 -184 46 -101 12 -131 28
-153 79 -19 46 -58 89 -103 112 -68 35 -207 64 -255 52z"/>
<path d="M1964 3446 c-62 -27 -96 -108 -114 -276 -6 -52 -17 -129 -25 -170
-48 -258 -19 -469 76 -554 95 -86 304 -146 481 -137 15 0 57 22 95 48 88 60
139 82 188 83 118 1 271 59 345 131 49 47 110 170 117 234 5 37 2 47 -21 70
-25 25 -29 26 -49 13 -12 -8 -43 -49 -68 -92 -90 -150 -114 -163 -376 -205
-83 -13 -143 -29 -194 -52 -125 -56 -205 -41 -301 55 -89 91 -120 195 -133
447 -10 184 -4 221 46 270 30 29 39 46 39 71 0 39 -7 51 -37 67 -27 14 -30 14
-69 -3z"/>
<path d="M2210 3308 c-27 -29 -56 -110 -65 -179 -13 -105 27 -283 76 -335 56
-60 179 -31 179 42 0 14 -25 73 -55 130 -30 58 -55 117 -55 130 0 14 14 59 30
101 36 88 35 88 10 113 -28 28 -93 27 -120 -2z"/>
<path d="M4140 3162 c0 -115 65 -195 220 -272 36 -18 97 -52 135 -75 39 -24
111 -60 160 -81 151 -63 215 -116 215 -175 0 -35 -20 -49 -115 -79 -38 -12
-122 -52 -185 -89 -63 -37 -149 -87 -190 -111 -196 -114 -145 -139 135 -65
195 51 293 88 483 182 191 95 202 105 202 190 0 53 -25 104 -60 123 -12 7 -46
20 -75 30 -29 10 -95 44 -146 76 -398 244 -694 404 -750 404 -29 0 -29 0 -29
-58z"/>
<path d="M820 3188 c-13 -5 -56 -35 -95 -67 -38 -32 -110 -84 -159 -115 -142
-92 -319 -234 -341 -274 -29 -53 -27 -162 4 -220 18 -36 33 -48 79 -69 83 -36
111 -51 170 -95 94 -70 132 -82 262 -82 124 -1 175 12 186 46 11 34 -43 76
-192 149 -157 77 -217 127 -230 194 -10 53 16 82 116 131 48 23 111 65 145 95
33 30 72 63 86 74 59 47 75 116 45 190 -18 41 -42 56 -76 43z"/>
</g>
</svg>
