<svg xmlns="http://www.w3.org/2000/svg" xmlns:xlink="http://www.w3.org/1999/xlink">

<path id="democracy-lab"
        d="M 292.00,129.00
           C 292.00,129.00 280.00,128.09 280.00,128.09
             276.48,128.30 271.33,129.50 268.00,130.70
             241.90,140.07 249.02,174.92 258.26,194.00
             261.42,200.52 263.67,203.95 267.42,210.00
             268.76,212.16 271.21,215.41 271.07,218.00
             270.90,221.31 265.00,227.40 262.72,230.00
             262.72,230.00 235.00,259.94 235.00,259.94
             228.16,266.10 227.25,261.93 215.00,255.81
             202.87,249.75 185.57,245.71 172.00,246.01
             130.54,246.95 97.58,274.24 84.67,313.00
             81.46,322.63 79.12,332.80 79.00,343.00
             78.79,361.62 80.36,376.50 87.45,394.00
             102.14,430.26 134.77,458.53 175.00,459.00
             192.72,459.20 200.13,459.79 217.00,452.57
             252.87,437.23 274.55,398.18 275.00,360.00
             275.21,341.74 271.98,326.90 265.20,310.00
             265.20,310.00 253.91,287.00 253.91,287.00
             253.58,282.91 259.38,277.06 261.92,274.00
             261.92,274.00 280.35,251.00 280.35,251.00
             282.37,248.39 287.62,241.13 290.09,239.65
             293.47,237.62 296.15,239.83 299.00,241.67
             305.72,246.02 312.56,249.96 320.00,252.99
             331.92,257.84 341.93,255.82 347.90,261.23
             351.98,264.92 357.52,275.82 360.31,281.00
             361.93,284.01 364.33,287.49 364.35,291.00
             364.36,294.46 360.63,300.52 360.09,310.00
             359.25,324.76 368.93,347.36 377.66,359.00
             377.66,359.00 384.17,366.91 384.17,366.91
             394.18,377.26 417.31,389.32 428.35,373.98
             430.07,371.60 431.08,368.81 431.84,366.00
             433.15,361.18 433.05,357.91 433.00,353.00
             432.75,331.82 418.52,306.41 402.00,293.68
             388.67,283.41 383.92,289.42 375.86,276.00
             375.86,276.00 367.00,261.00 367.00,261.00
             366.14,259.57 363.72,255.86 363.64,254.32
             363.53,252.03 366.43,250.31 367.90,248.82
             370.80,245.89 372.55,242.88 373.90,239.00
             378.54,225.65 375.38,207.61 369.69,195.00
             362.03,178.01 347.49,160.56 333.00,149.00
             333.00,149.00 308.65,131.91 308.65,131.91
             305.08,127.22 301.78,113.16 300.00,107.00
             302.40,106.99 305.77,107.14 307.98,106.26
             318.06,102.29 312.87,89.66 309.21,83.00
             302.71,71.20 286.11,58.36 273.00,54.92
             270.56,54.28 268.52,54.03 266.00,54.03
             248.83,54.05 251.68,68.37 257.88,79.00
             260.86,84.13 265.58,88.88 270.00,92.83
             273.45,95.91 280.17,100.09 282.49,103.09
             285.38,106.82 289.89,123.37 292.00,129.00 Z
           M 272.85,67.44
           C 282.15,66.45 290.33,73.19 295.75,80.00
             298.15,83.28 302.25,90.92 295.75,92.69
             287.83,94.92 277.03,87.15 272.85,81.00
             269.40,76.47 266.68,70.34 272.85,67.44 Z
           M 285.00,145.33
           C 314.86,142.00 341.72,164.10 353.88,190.00
             361.56,206.36 366.05,232.20 342.00,236.54
             334.58,237.88 326.95,235.83 320.00,233.31
             300.59,226.24 281.49,206.02 273.82,187.00
             268.12,172.85 266.01,150.06 285.00,145.33 Z
           M 172.00,275.32
           C 203.75,271.86 231.68,290.22 242.77,320.00
             247.08,331.58 247.14,340.94 247.00,353.00
             246.63,384.03 222.06,413.62 190.00,414.00
             190.00,414.00 182.00,414.00 182.00,414.00
             147.07,413.59 121.33,378.68 119.09,346.00
             117.94,329.29 124.80,307.87 135.46,295.00
             144.47,284.14 158.52,278.26 172.00,275.32 Z
           M 389.00,308.51
           C 403.73,309.06 413.42,326.64 413.96,340.00
             414.19,345.77 413.14,352.97 406.00,353.68
             393.02,354.99 380.78,333.29 380.09,322.00
             379.67,315.00 381.80,310.17 389.00,308.51 Z" />
             
<g id="slack-icon">
	<g>
		<path d="M99.4,151.2c0,7.1-5.8,12.9-12.9,12.9s-12.9-5.8-12.9-12.9c0-7.1,5.8-12.9,12.9-12.9h12.9V151.2z"/>
		<path d="M105.9,151.2c0-7.1,5.8-12.9,12.9-12.9s12.9,5.8,12.9,12.9v32.3c0,7.1-5.8,12.9-12.9,12.9s-12.9-5.8-12.9-12.9
			C105.9,183.5,105.9,151.2,105.9,151.2z"/>
	</g>
	<g>
		<path d="M118.8,99.4c-7.1,0-12.9-5.8-12.9-12.9s5.8-12.9,12.9-12.9s12.9,5.8,12.9,12.9v12.9H118.8z"/>
		<path d="M118.8,105.9c7.1,0,12.9,5.8,12.9,12.9s-5.8,12.9-12.9,12.9H86.5c-7.1,0-12.9-5.8-12.9-12.9s5.8-12.9,12.9-12.9
			C86.5,105.9,118.8,105.9,118.8,105.9z"/>
	</g>
	<g>
		<path d="M170.6,118.8c0-7.1,5.8-12.9,12.9-12.9c7.1,0,12.9,5.8,12.9,12.9s-5.8,12.9-12.9,12.9h-12.9V118.8z"/>
		<path d="M164.1,118.8c0,7.1-5.8,12.9-12.9,12.9c-7.1,0-12.9-5.8-12.9-12.9V86.5c0-7.1,5.8-12.9,12.9-12.9
			c7.1,0,12.9,5.8,12.9,12.9V118.8z"/>
	</g>
	<g>
		<path d="M151.2,170.6c7.1,0,12.9,5.8,12.9,12.9c0,7.1-5.8,12.9-12.9,12.9c-7.1,0-12.9-5.8-12.9-12.9v-12.9H151.2z"/>
		<path d="M151.2,164.1c-7.1,0-12.9-5.8-12.9-12.9c0-7.1,5.8-12.9,12.9-12.9h32.3c7.1,0,12.9,5.8,12.9,12.9
			c0,7.1-5.8,12.9-12.9,12.9H151.2z"/>
	</g>
</g>

</svg>